<?xml version="1.0" encoding="UTF-8"?>
<!DOCTYPE svg PUBLIC "-//W3C//DTD SVG 1.1//EN" "http://www.w3.org/Graphics/SVG/1.1/DTD/svg11.dtd">
<!-- Creator: CorelDRAW 2019 (64-Bit Evaluation Version) -->
<svg xmlns="http://www.w3.org/2000/svg" xml:space="preserve" width="43.3493mm" height="43.3493mm" version="1.1" style="shape-rendering:geometricPrecision; text-rendering:geometricPrecision; image-rendering:optimizeQuality; fill-rule:evenodd; clip-rule:evenodd"
viewBox="0 0 291.95 291.95"
 xmlns:xlink="http://www.w3.org/1999/xlink">
 <defs>
  <style type="text/css">
   <![CDATA[
    .fil1 {fill:none}
    .fil0 {fill:#EF7F1A;fill-rule:nonzero}
   ]]>
  </style>
 </defs>
 <g id="Layer_x0020_1">
  <metadata id="CorelCorpID_0Corel-Layer"/>
  <g id="_2562572562112">
   <path class="fil0" d="M50.85 152.68c13.79,2.2 27.98,1.79 41.96,2.89 10.91,0.85 22.02,1.16 32.61,3.58 13.89,3.18 23.66,12.11 26.63,26.62 2.95,14.43 3.45,29.12 -1.99,43.04 -2.46,6.31 -1,10.16 3.61,13.83 2.39,1.9 4.98,3.54 7.45,5.34 4.79,3.48 8.17,2.82 11.95,-2.23 11.25,-15.04 13.91,-31.91 12.71,-50.05 -1.36,-20.54 -11.05,-35.74 -28.43,-46.25 -12.97,-7.83 -27.29,-11.44 -42.25,-12.21 -15.05,-0.77 -30.18,-0.29 -45.19,-1.44 -19.28,-1.47 -31.64,-12.61 -33.27,-31.88 -1.79,-21.07 -1.28,-42.34 -1.72,-63.53 -0.03,-1.68 0.38,-3.36 0.55,-4.74 27.11,0 53.64,0.04 80.17,-0.07 2.86,-0.01 6.22,-0.07 8.47,-1.5 5.34,-3.39 10.15,-7.6 15.88,-12.02 -10.55,-4.45 -21.22,-5.99 -32.19,-5.99 -33.49,-0.01 -66.98,-0.01 -100.46,0.02 -2.2,0.01 -4.41,0.3 -5.7,0.4 0,29.44 -2.14,58.45 0.58,86.99 2.94,30.81 17.96,44.29 48.65,49.18z"/>
   <path class="fil0" d="M288.73 186.19c-1.66,-18.65 -10.86,-34.81 -29.94,-42.2 -24.5,-9.49 -50.15,-7.05 -75.73,-7.27 2.27,12.79 7.56,17.82 19.33,18.61 5.61,0.38 11.26,0.04 16.86,0.38 19.61,1.18 33.04,11.66 35.01,31.08 2.33,22.97 1.91,46.23 2.69,69.68 -28.33,0 -55.17,1.18 -81.84,-0.39 -19.68,-1.16 -32.85,-14.39 -35.77,-34.28 -2.17,-14.79 -1.19,-30.03 -2,-45.05 -0.16,-2.92 -1.3,-6.93 -3.41,-8.39 -8.31,-5.73 -17.9,-7.79 -28.59,-7.72 0,16.67 -0.71,32.78 0.29,48.78 0.54,8.69 2.49,17.97 6.4,25.67 13.05,25.66 35.36,39.09 63.54,40.07 37.54,1.3 75.15,0.44 112.73,0.47 0.69,0 1.39,-0.43 3.65,-1.17 -0.92,-29.21 -0.6,-58.86 -3.22,-88.25z"/>
   <path class="fil0" d="M107.65 69.05c-3.49,20.61 -2.27,42.01 -3.13,62.85 11.87,1.42 21.95,2.62 32.96,3.93 0,-3.15 -0.01,-5.9 0,-8.64 0.08,-16.36 -0.31,-32.74 0.35,-49.08 0.98,-24.2 15.87,-41.07 39.92,-42.45 25.68,-1.47 51.52,-0.33 78.5,-0.33 0,13.16 0.01,25.67 -0.01,38.16 -0.02,13.9 0.88,28.01 -9.85,39.88 25.71,-1.23 40.43,-13.09 43.31,-36.97 2.01,-16.64 1.03,-33.66 1.37,-50.51 0.06,-3.18 0.01,-6.36 0.01,-9.8 -35.58,0 -69.83,-0.07 -104.09,0.07 -6.62,0.02 -13.29,0.48 -19.84,1.42 -28.59,4.07 -55.05,25.17 -59.5,51.47z"/>
   <path class="fil0" d="M117.17 256.27c-27.05,-0.08 -54.1,-0.06 -82.3,-0.06 0,-13.92 0.17,-27.67 -0.05,-41.42 -0.21,-13.9 0.27,-27.54 9.94,-39.18 -22.57,-2.06 -40.94,12.48 -43.36,35.37 -1.63,15.44 -1.03,31.11 -1.35,46.68 -0.12,5.8 -0.02,11.59 -0.02,17.25 41.38,0 81.71,0.17 122.04,-0.19 5.65,-0.05 11.29,-2.67 17.7,-4.29 -6.52,-4.96 -11.68,-9.1 -17.09,-12.87 -1.45,-1.01 -3.65,-1.29 -5.52,-1.29z"/>
   <path class="fil0" d="M154.8 49.57c-2.66,2.66 -5.91,6.8 -5.62,9.97 1.03,11.33 3.56,22.52 5.32,33.79 1.77,11.37 6,16.17 17.29,18.37 4.2,0.82 8.54,0.9 13.93,1.42 0,-11.93 1.12,-22.76 -0.33,-33.23 -1.3,-9.38 -4.32,-18.93 -8.59,-27.38 -6.72,-13.31 -11.32,-13.59 -22,-2.94z"/>
  </g>
  <rect class="fil1" x="-0" y="-0" width="291.95" height="291.95"/>
 </g>
</svg>
